<svg width="160" height="40" viewBox="0 0 160 40" fill="none" xmlns="http://www.w3.org/2000/svg">
<path d="M48.4547 12.1492C48.4547 9.09415 46.2522 6.89165 42.8419 6.89165H29.7691V0H43.3393C51.3677 0 56.199 5.4707 56.199 12.1492C56.199 17.691 52.7887 21.1723 48.9521 22.5222L57.762 39.5737H48.81L37.7975 17.4068H42.8419C46.2522 17.4068 48.4547 15.2753 48.4547 12.1492Z" fill="#232323"/>
<path d="M24.4405 39.6448H0V0.0710306H24.4405V6.96269H7.74423V17.2646H24.4405V24.1563H7.74423V32.7531H24.4405V39.6448Z" fill="#232323"/>
<path d="M94.4938 39.6448H85.4707L75.3109 21.5986L70.1954 27.7087V39.6448H62.5222V0.0710306H70.1954V17.2646L84.1919 0.0710306H93.5702L80.4263 15.7726L94.4938 39.6448Z" fill="#232323"/>
<path d="M126.252 26.0746C126.252 34.4583 119.787 40 111.687 40C103.588 40 97.1226 34.5293 97.1226 26.0746V0.0710306H104.867V25.7904C104.867 30.3375 107.567 33.0373 111.687 33.0373C115.879 33.0373 118.579 30.3375 118.579 25.7904V0.0710306H126.252V26.0746Z" fill="#232323"/>
<path d="M159.005 6.96269H148.632V39.6448H140.888V6.96269H130.586V0.0710306H159.005V6.96269Z" fill="#232323"/>
</svg>
